<?xml version="1.0" encoding="UTF-8"?>
<svg xmlns="http://www.w3.org/2000/svg" xmlns:xlink="http://www.w3.org/1999/xlink" width="562pt" height="202.6pt" viewBox="0 0 562 202.6" version="1.1">
<defs>
<clipPath id="clip1">
  <path d="M 105 165 L 461 165 L 461 202.601563 L 105 202.601563 Z M 105 165 "/>
</clipPath>
</defs>
<g id="surface1">
<path style=" stroke:none;fill-rule:evenodd;fill:rgb(76.951599%,77.734375%,78.514099%);fill-opacity:1;" d="M 0.0859375 80.535156 L 561.085938 80.535156 L 561.085938 75.285156 L 0.0859375 75.285156 Z M 0.0859375 80.535156 "/>
<path style=" stroke:none;fill-rule:evenodd;fill:#da0037;fill-opacity:1;" d="M 3.273438 42.554688 C 3.734375 44.085938 4.574219 45.808594 5.800781 47.71875 C 7.023438 49.632813 8.515625 51.433594 10.277344 53.117188 C 12.035156 54.800781 13.929688 56.195313 15.960938 57.304688 C 17.984375 58.414063 20.035156 58.96875 22.097656 58.96875 L 89.9375 58.96875 C 93.460938 58.96875 96.519531 57.898438 99.121094 55.753906 C 101.722656 53.613281 103.902344 51.03125 105.664063 48.007813 C 107.421875 44.984375 108.742188 41.828125 109.628906 38.539063 C 110.503906 35.246094 110.945313 32.492188 110.945313 30.273438 C 110.945313 27.519531 110.371094 24.476563 109.222656 21.148438 C 108.074219 17.820313 106.429688 14.699219 104.285156 11.789063 C 102.144531 8.886719 99.542969 6.4375 96.480469 4.445313 C 93.417969 2.453125 90.015625 1.460938 86.265625 1.460938 L 23.9375 1.460938 C 19.578125 1.460938 16.035156 2.535156 13.316406 4.675781 C 10.601563 6.820313 8.457031 9.441406 6.890625 12.539063 C 5.320313 15.636719 4.269531 18.871094 3.734375 22.238281 C 3.199219 25.605469 2.929688 28.550781 2.929688 31.078125 L 2.929688 33.371094 C 2.929688 34.445313 2.988281 35.609375 3.101563 36.871094 C 3.21875 38.136719 3.273438 39.304688 3.273438 40.371094 Z M 14.292969 31.078125 C 14.292969 29.699219 14.429688 27.976563 14.695313 25.910156 C 14.964844 23.84375 15.503906 21.871094 16.300781 19.996094 C 17.105469 18.121094 18.253906 16.496094 19.746094 15.121094 C 21.238281 13.742188 23.246094 13.054688 25.773438 13.054688 L 86.265625 13.054688 C 88.253906 13.054688 89.976563 13.6875 91.429688 14.949219 C 92.882813 16.210938 94.070313 17.722656 94.988281 19.484375 C 95.90625 21.242188 96.59375 23.078125 97.054688 24.992188 C 97.515625 26.90625 97.742188 28.550781 97.742188 29.929688 C 97.742188 31.914063 97.496094 34.023438 96.996094 36.242188 C 96.503906 38.460938 95.640625 40.527344 94.414063 42.441406 C 93.191406 44.355469 91.601563 45.941406 89.652344 47.203125 C 87.703125 48.464844 85.308594 49.097656 82.476563 49.097656 L 29.675781 49.097656 C 26.84375 49.097656 24.457031 48.523438 22.503906 47.371094 C 20.550781 46.226563 18.964844 44.753906 17.738281 42.953125 C 16.511719 41.160156 15.632813 39.203125 15.097656 37.101563 C 14.5625 34.996094 14.292969 32.988281 14.292969 31.078125 Z M 118.058594 1.460938 L 118.058594 58.96875 L 132.179688 58.96875 L 132.179688 13.054688 L 178.550781 13.054688 C 179.089844 13.054688 179.664063 13.476563 180.273438 14.316406 C 180.886719 15.160156 181.363281 15.925781 181.714844 16.613281 C 182.054688 17.300781 182.265625 17.722656 182.339844 17.871094 L 182.339844 20.171875 L 180.964844 23.496094 C 180.65625 24.035156 180.199219 24.589844 179.589844 25.164063 C 178.972656 25.738281 178.671875 26.027344 178.671875 26.027344 L 140.902344 26.027344 L 140.902344 28.4375 L 176.714844 58.96875 L 193.589844 58.96875 L 171.089844 37.273438 C 174.304688 36.96875 177.289063 36.371094 180.046875 35.496094 C 182.800781 34.617188 185.214844 33.410156 187.277344 31.878906 C 189.34375 30.351563 190.96875 28.511719 192.15625 26.371094 C 193.339844 24.226563 193.933594 21.703125 193.933594 18.789063 C 193.933594 17.1875 193.683594 15.390625 193.1875 13.398438 C 192.691406 11.410156 191.90625 9.535156 190.839844 7.773438 C 189.761719 6.015625 188.367188 4.523438 186.644531 3.296875 C 184.921875 2.074219 182.839844 1.460938 180.390625 1.460938 Z M 200.9375 58.96875 L 216.777344 58.96875 L 230.320313 42.097656 L 254.886719 42.097656 L 260.738281 34.289063 L 278.988281 58.96875 L 294.027344 58.96875 L 253.621094 3.644531 C 251.9375 2.113281 249.910156 1.347656 247.539063 1.347656 C 246.007813 1.347656 244.554688 1.652344 243.175781 2.265625 C 241.800781 2.878906 240.726563 3.71875 239.964844 4.789063 Z M 247.539063 15.925781 L 257.871094 31.535156 L 237.671875 31.535156 Z M 301.144531 29.46875 C 301.144531 26.945313 301.621094 24.074219 302.578125 20.859375 C 303.535156 17.648438 304.96875 14.605469 306.882813 11.734375 C 308.796875 8.867188 311.171875 6.4375 314.003906 4.445313 C 316.835938 2.453125 320.160156 1.460938 323.988281 1.460938 L 384.480469 1.460938 C 384.253906 1.769531 383.921875 2.226563 383.503906 2.839844 C 383.085938 3.453125 382.679688 4.101563 382.296875 4.789063 C 381.914063 5.480469 381.570313 6.128906 381.265625 6.742188 C 380.960938 7.355469 380.765625 7.8125 380.691406 8.121094 C 380.464844 8.425781 380.15625 8.808594 379.773438 9.265625 C 379.390625 9.726563 378.988281 10.1875 378.566406 10.644531 C 378.144531 11.105469 377.78125 11.488281 377.476563 11.789063 C 377.171875 12.097656 377.015625 12.246094 377.015625 12.246094 L 326.050781 12.246094 C 324.523438 12.246094 323.089844 12.730469 321.746094 13.6875 C 320.410156 14.644531 319.242188 15.808594 318.246094 17.1875 C 317.253906 18.566406 316.46875 19.996094 315.894531 21.492188 C 315.320313 22.984375 315.035156 24.265625 315.035156 25.335938 L 315.035156 36.816406 C 315.261719 37.886719 315.742188 39.164063 316.46875 40.660156 C 317.195313 42.152344 318.113281 43.589844 319.222656 44.964844 C 320.335938 46.34375 321.613281 47.527344 323.066406 48.523438 C 324.523438 49.519531 326.128906 50.015625 327.890625 50.015625 L 383.214844 50.015625 C 383.214844 50.628906 383.023438 51.433594 382.640625 52.425781 C 382.257813 53.421875 381.761719 54.414063 381.148438 55.410156 C 380.539063 56.40625 379.867188 57.246094 379.140625 57.9375 C 378.414063 58.621094 377.710938 58.96875 377.015625 58.96875 L 322.148438 58.96875 C 318.09375 58.96875 314.710938 57.898438 311.992188 55.753906 C 309.273438 53.613281 307.113281 51.011719 305.507813 47.949219 C 303.898438 44.890625 302.769531 41.675781 302.121094 38.308594 C 301.46875 34.941406 301.144531 31.996094 301.144531 29.46875 Z M 391.59375 1.460938 L 403.53125 1.460938 L 403.53125 50.132813 L 448.988281 50.132813 C 448.988281 50.664063 448.796875 51.433594 448.414063 52.425781 C 448.03125 53.421875 447.535156 54.398438 446.921875 55.355469 C 446.308594 56.308594 445.621094 57.152344 444.855469 57.878906 C 444.089844 58.605469 443.363281 58.96875 442.675781 58.96875 L 391.59375 58.96875 Z M 455.992188 29.46875 C 455.992188 26.945313 456.46875 24.074219 457.425781 20.859375 C 458.382813 17.648438 459.816406 14.605469 461.730469 11.734375 C 463.644531 8.867188 466.015625 6.4375 468.847656 4.445313 C 471.679688 2.453125 475.007813 1.460938 478.835938 1.460938 L 539.324219 1.460938 L 535.535156 8.121094 C 535.308594 8.425781 535.003906 8.808594 534.617188 9.265625 C 534.234375 9.726563 533.839844 10.1875 533.414063 10.644531 C 532.992188 11.105469 532.628906 11.488281 532.324219 11.789063 C 532.015625 12.097656 531.863281 12.246094 531.863281 12.246094 L 480.898438 12.246094 C 479.367188 12.246094 477.914063 12.769531 476.535156 13.800781 C 475.160156 14.835938 473.972656 16.078125 472.980469 17.53125 C 471.984375 18.984375 471.199219 20.496094 470.628906 22.066406 C 470.050781 23.632813 469.765625 24.953125 469.765625 26.027344 L 532.210938 26.027344 C 532.132813 27.175781 531.789063 28.203125 531.175781 29.121094 C 530.5625 30.039063 529.855469 30.90625 529.050781 31.703125 C 528.246094 32.511719 527.40625 33.277344 526.527344 34.003906 C 525.644531 34.730469 524.898438 35.515625 524.289063 36.355469 L 469.648438 36.355469 C 469.960938 37.429688 470.492188 38.730469 471.257813 40.257813 C 472.023438 41.789063 472.996094 43.28125 474.183594 44.734375 C 475.371094 46.191406 476.710938 47.414063 478.203125 48.410156 C 479.695313 49.402344 481.359375 49.902344 483.195313 49.902344 L 538.519531 49.902344 C 538.519531 50.511719 538.3125 51.335938 537.890625 52.371094 C 537.46875 53.402344 536.914063 54.398438 536.226563 55.355469 C 535.535156 56.308594 534.808594 57.152344 534.046875 57.878906 C 533.28125 58.605469 532.550781 58.96875 531.863281 58.96875 L 476.996094 58.96875 C 472.941406 58.96875 469.554688 57.898438 466.839844 55.753906 C 464.121094 53.613281 461.964844 51.011719 460.351563 47.949219 C 458.746094 44.890625 457.617188 41.675781 456.964844 38.308594 C 456.316406 34.941406 455.992188 31.996094 455.992188 29.46875 Z M 455.992188 29.46875 "/>
<path style=" stroke:none;fill-rule:evenodd;fill:#da0037;fill-opacity:1;" d="M 554.328125 -0.0546875 C 555.65625 -0.0546875 556.925781 0.277344 558.140625 0.941406 C 559.359375 1.601563 560.316406 2.550781 561.011719 3.789063 C 561.714844 5.023438 562.058594 6.320313 562.058594 7.671875 C 562.058594 9.019531 561.714844 10.300781 561.035156 11.523438 C 560.347656 12.742188 559.398438 13.691406 558.179688 14.378906 C 556.960938 15.058594 555.675781 15.398438 554.328125 15.398438 C 552.984375 15.398438 551.703125 15.058594 550.480469 14.378906 C 549.261719 13.691406 548.3125 12.742188 547.628906 11.523438 C 546.945313 10.300781 546.601563 9.019531 546.601563 7.671875 C 546.601563 6.320313 546.949219 5.023438 547.644531 3.789063 C 548.339844 2.550781 549.300781 1.601563 550.519531 0.941406 C 551.734375 0.277344 553.003906 -0.0546875 554.328125 -0.0546875 Z M 554.339844 1.472656 C 553.273438 1.472656 552.253906 1.738281 551.277344 2.269531 C 550.304688 2.800781 549.535156 3.5625 548.976563 4.554688 C 548.414063 5.546875 548.132813 6.589844 548.132813 7.675781 C 548.132813 8.757813 548.40625 9.789063 548.953125 10.769531 C 549.503906 11.746094 550.265625 12.515625 551.253906 13.066406 C 552.230469 13.617188 553.257813 13.890625 554.339844 13.890625 C 555.421875 13.890625 556.449219 13.617188 557.425781 13.066406 C 558.40625 12.515625 559.171875 11.746094 559.722656 10.769531 C 560.273438 9.789063 560.550781 8.757813 560.550781 7.675781 C 560.550781 6.589844 560.265625 5.546875 559.710938 4.554688 C 559.144531 3.5625 558.378906 2.800781 557.398438 2.269531 C 556.421875 1.738281 555.398438 1.472656 554.339844 1.472656 Z M 550.839844 11.804688 L 550.839844 3.621094 L 552.503906 3.621094 C 554.054688 3.621094 554.929688 3.628906 555.113281 3.644531 C 555.671875 3.6875 556.09375 3.800781 556.398438 3.972656 C 556.703125 4.140625 556.960938 4.402344 557.164063 4.757813 C 557.367188 5.105469 557.46875 5.496094 557.46875 5.925781 C 557.46875 6.519531 557.277344 7.023438 556.890625 7.441406 C 556.507813 7.863281 555.964844 8.121094 555.269531 8.222656 C 555.519531 8.316406 555.714844 8.421875 555.84375 8.53125 C 555.980469 8.640625 556.164063 8.851563 556.398438 9.15625 C 556.464844 9.238281 556.660156 9.570313 557.003906 10.15625 L 557.964844 11.804688 L 555.898438 11.804688 L 555.222656 10.472656 C 554.765625 9.578125 554.386719 9.015625 554.089844 8.785156 C 553.78125 8.554688 553.402344 8.4375 552.941406 8.4375 L 552.511719 8.4375 L 552.511719 11.804688 Z M 552.511719 7.136719 L 553.183594 7.136719 C 554.140625 7.136719 554.738281 7.097656 554.96875 7.023438 C 555.199219 6.953125 555.378906 6.824219 555.515625 6.644531 C 555.648438 6.460938 555.714844 6.253906 555.714844 6.019531 C 555.714844 5.796875 555.648438 5.59375 555.519531 5.414063 C 555.386719 5.242188 555.203125 5.113281 554.964844 5.039063 C 554.71875 4.960938 554.128906 4.925781 553.183594 4.925781 L 552.511719 4.925781 Z M 552.511719 7.136719 "/>
<path style=" stroke:none;fill-rule:evenodd;fill:#000000;fill-opacity:1;" d="M 1.464844 105.289063 L 25.84375 105.289063 L 25.84375 112.15625 L 11.359375 112.15625 L 11.359375 117.726563 L 23.746094 117.726563 L 23.746094 124.1875 L 11.359375 124.1875 L 11.359375 137.199219 L 1.464844 137.199219 Z M 53.476563 105.289063 L 63.332031 105.289063 L 63.332031 124.296875 C 63.332031 126.179688 63.027344 127.960938 62.441406 129.632813 C 61.855469 131.3125 60.933594 132.773438 59.679688 134.027344 C 58.425781 135.285156 57.109375 136.160156 55.734375 136.667969 C 53.820313 137.378906 51.515625 137.734375 48.839844 137.734375 C 47.285156 137.734375 45.589844 137.621094 43.757813 137.410156 C 41.921875 137.191406 40.382813 136.761719 39.152344 136.117188 C 37.917969 135.46875 36.789063 134.554688 35.773438 133.367188 C 34.746094 132.179688 34.050781 130.953125 33.671875 129.691406 C 33.0625 127.664063 32.757813 125.867188 32.757813 124.296875 L 32.757813 105.289063 L 42.605469 105.289063 L 42.605469 124.753906 C 42.605469 126.492188 43.089844 127.851563 44.046875 128.824219 C 45.011719 129.804688 46.347656 130.289063 48.054688 130.289063 C 49.742188 130.289063 51.070313 129.8125 52.039063 128.84375 C 52.996094 127.886719 53.476563 126.519531 53.476563 124.753906 Z M 69.710938 126.648438 L 79.0625 126.058594 C 79.265625 127.574219 79.679688 128.734375 80.304688 129.519531 C 81.320313 130.804688 82.769531 131.453125 84.65625 131.453125 C 86.058594 131.453125 87.144531 131.121094 87.902344 130.464844 C 88.667969 129.804688 89.046875 129.039063 89.046875 128.164063 C 89.046875 127.34375 88.691406 126.601563 87.96875 125.949219 C 87.253906 125.292969 85.570313 124.6875 82.933594 124.097656 C 78.609375 123.132813 75.535156 121.839844 73.695313 120.230469 C 71.839844 118.621094 70.910156 116.574219 70.910156 114.082031 C 70.910156 112.445313 71.382813 110.902344 72.339844 109.445313 C 73.285156 107.984375 74.714844 106.839844 76.621094 106.007813 C 78.53125 105.171875 81.144531 104.757813 84.464844 104.757813 C 88.539063 104.757813 91.644531 105.515625 93.785156 107.039063 C 95.921875 108.554688 97.191406 110.96875 97.601563 114.28125 L 88.335938 114.832031 C 88.089844 113.382813 87.566406 112.328125 86.78125 111.671875 C 85.984375 111.011719 84.894531 110.6875 83.503906 110.6875 C 82.363281 110.6875 81.492188 110.929688 80.914063 111.414063 C 80.339844 111.898438 80.042969 112.492188 80.042969 113.1875 C 80.042969 113.695313 80.28125 114.148438 80.753906 114.554688 C 81.207031 114.980469 82.300781 115.363281 84.039063 115.730469 C 88.347656 116.65625 91.429688 117.601563 93.285156 118.546875 C 95.152344 119.496094 96.511719 120.671875 97.355469 122.085938 C 98.207031 123.488281 98.628906 125.066406 98.628906 126.808594 C 98.628906 128.851563 98.0625 130.738281 96.933594 132.46875 C 95.796875 134.191406 94.222656 135.507813 92.1875 136.398438 C 90.160156 137.289063 87.605469 137.734375 84.515625 137.734375 C 79.09375 137.734375 75.339844 136.6875 73.253906 134.601563 C 71.160156 132.515625 69.980469 129.863281 69.710938 126.648438 Z M 105.550781 105.289063 L 115.441406 105.289063 L 115.441406 137.199219 L 105.550781 137.199219 Z M 122.808594 121.269531 C 122.808594 116.0625 124.257813 112.007813 127.160156 109.113281 C 130.066406 106.207031 134.105469 104.757813 139.289063 104.757813 C 144.601563 104.757813 148.691406 106.183594 151.566406 109.03125 C 154.441406 111.882813 155.878906 115.878906 155.878906 121.007813 C 155.878906 124.738281 155.253906 127.789063 153.996094 130.171875 C 152.738281 132.558594 150.921875 134.414063 148.550781 135.746094 C 146.175781 137.074219 143.21875 137.734375 139.675781 137.734375 C 136.085938 137.734375 133.101563 137.164063 130.742188 136.019531 C 128.386719 134.867188 126.46875 133.054688 125.007813 130.574219 C 123.546875 128.101563 122.808594 124.996094 122.808594 121.269531 Z M 132.65625 121.289063 C 132.65625 124.507813 133.257813 126.824219 134.453125 128.230469 C 135.65625 129.632813 137.296875 130.335938 139.355469 130.335938 C 141.472656 130.335938 143.121094 129.648438 144.28125 128.273438 C 145.445313 126.890625 146.027344 124.421875 146.027344 120.855469 C 146.027344 117.851563 145.421875 115.664063 144.210938 114.28125 C 142.988281 112.890625 141.347656 112.199219 139.265625 112.199219 C 137.277344 112.199219 135.671875 112.90625 134.46875 114.308594 C 133.257813 115.714844 132.65625 118.042969 132.65625 121.289063 Z M 162.835938 105.289063 L 172.035156 105.289063 L 184.003906 122.910156 L 184.003906 105.289063 L 193.3125 105.289063 L 193.3125 137.199219 L 184.003906 137.199219 L 172.101563 119.679688 L 172.101563 137.199219 L 162.835938 137.199219 Z M 216.203125 105.289063 L 229.210938 105.289063 L 234.164063 124.707031 L 239.132813 105.289063 L 252.078125 105.289063 L 252.078125 137.199219 L 244.011719 137.199219 L 244.011719 112.878906 L 237.785156 137.199219 L 230.480469 137.199219 L 224.269531 112.878906 L 224.269531 137.199219 L 216.203125 137.199219 Z M 260.320313 105.289063 L 270.214844 105.289063 L 270.214844 137.199219 L 260.320313 137.199219 Z M 278.964844 105.289063 L 293.617188 105.289063 C 296.496094 105.289063 298.839844 105.6875 300.613281 106.46875 C 302.386719 107.253906 303.855469 108.371094 305.023438 109.839844 C 306.183594 111.308594 307.019531 113.011719 307.539063 114.957031 C 308.070313 116.902344 308.328125 118.960938 308.328125 121.136719 C 308.328125 124.539063 307.941406 127.1875 307.164063 129.066406 C 306.390625 130.945313 305.3125 132.519531 303.929688 133.789063 C 302.550781 135.0625 301.070313 135.90625 299.492188 136.332031 C 297.328125 136.910156 295.367188 137.199219 293.617188 137.199219 L 278.964844 137.199219 Z M 288.808594 112.511719 L 288.808594 129.9375 L 291.230469 129.9375 C 293.296875 129.9375 294.765625 129.707031 295.644531 129.253906 C 296.511719 128.789063 297.195313 127.996094 297.691406 126.863281 C 298.191406 125.71875 298.433594 123.871094 298.433594 121.320313 C 298.433594 117.941406 297.886719 115.632813 296.777344 114.382813 C 295.671875 113.136719 293.839844 112.511719 291.277344 112.511719 Z M 315.191406 105.289063 L 329.84375 105.289063 C 332.726563 105.289063 335.066406 105.6875 336.839844 106.46875 C 338.617188 107.253906 340.089844 108.371094 341.253906 109.839844 C 342.410156 111.308594 343.253906 113.011719 343.769531 114.957031 C 344.296875 116.902344 344.558594 118.960938 344.558594 121.136719 C 344.558594 124.539063 344.171875 127.1875 343.390625 129.066406 C 342.617188 130.945313 341.546875 132.519531 340.160156 133.789063 C 338.777344 135.0625 337.300781 135.90625 335.71875 136.332031 C 333.558594 136.910156 331.597656 137.199219 329.84375 137.199219 L 315.191406 137.199219 Z M 325.039063 112.511719 L 325.039063 129.9375 L 327.464844 129.9375 C 329.523438 129.9375 330.996094 129.707031 331.871094 129.253906 C 332.742188 128.789063 333.425781 127.996094 333.921875 126.863281 C 334.421875 125.71875 334.664063 123.871094 334.664063 121.320313 C 334.664063 117.941406 334.113281 115.632813 333.007813 114.382813 C 331.902344 113.136719 330.066406 112.511719 327.503906 112.511719 Z M 351.285156 105.289063 L 361.132813 105.289063 L 361.132813 129.359375 L 376.554688 129.359375 L 376.554688 137.199219 L 351.285156 137.199219 Z M 382.578125 105.289063 L 408.960938 105.289063 L 408.960938 112.113281 L 392.46875 112.113281 L 392.46875 117.191406 L 407.753906 117.191406 L 407.753906 123.699219 L 392.46875 123.699219 L 392.46875 129.980469 L 409.449219 129.980469 L 409.449219 137.199219 L 382.578125 137.199219 Z M 413.070313 105.289063 L 422.429688 105.289063 L 425.796875 123.097656 L 430.726563 105.289063 L 440.007813 105.289063 L 444.976563 123.121094 L 448.363281 105.289063 L 457.679688 105.289063 L 450.644531 137.199219 L 440.976563 137.199219 L 435.378906 117.109375 L 429.8125 137.199219 L 420.15625 137.199219 Z M 482.085938 131.941406 L 470.914063 131.941406 L 469.308594 137.199219 L 459.246094 137.199219 L 471.253906 105.289063 L 482.046875 105.289063 L 494.003906 137.199219 L 483.679688 137.199219 Z M 479.996094 125.035156 L 476.511719 113.566406 L 473.015625 125.035156 Z M 498.816406 137.199219 L 498.816406 105.289063 L 515.246094 105.289063 C 518.289063 105.289063 520.621094 105.554688 522.226563 106.082031 C 523.839844 106.601563 525.136719 107.574219 526.128906 108.984375 C 527.113281 110.402344 527.605469 112.132813 527.605469 114.164063 C 527.605469 115.9375 527.226563 117.464844 526.46875 118.746094 C 525.71875 120.039063 524.675781 121.082031 523.347656 121.886719 C 522.507813 122.390625 521.351563 122.8125 519.886719 123.148438 C 521.058594 123.539063 521.914063 123.929688 522.449219 124.320313 C 522.804688 124.582031 523.335938 125.144531 524.023438 125.996094 C 524.710938 126.855469 525.171875 127.515625 525.398438 127.984375 L 530.1875 137.199219 L 519.046875 137.199219 L 513.78125 127.472656 C 513.113281 126.207031 512.519531 125.390625 512.003906 125.011719 C 511.285156 124.523438 510.476563 124.277344 509.578125 124.277344 L 508.714844 124.277344 L 508.714844 137.199219 Z M 508.714844 118.261719 L 512.878906 118.261719 C 513.320313 118.261719 514.199219 118.113281 515.488281 117.824219 C 516.144531 117.695313 516.679688 117.363281 517.089844 116.820313 C 517.503906 116.277344 517.714844 115.664063 517.714844 114.964844 C 517.714844 113.933594 517.382813 113.136719 516.730469 112.585938 C 516.078125 112.03125 514.851563 111.753906 513.046875 111.753906 L 508.714844 111.753906 Z M 534.910156 105.289063 L 561.296875 105.289063 L 561.296875 112.113281 L 544.804688 112.113281 L 544.804688 117.191406 L 560.089844 117.191406 L 560.089844 123.699219 L 544.804688 123.699219 L 544.804688 129.980469 L 561.78125 129.980469 L 561.78125 137.199219 L 534.910156 137.199219 Z M 534.910156 105.289063 "/>
<g clip-path="url(#clip1)" clip-rule="nonzero">
<path style=" stroke:none;fill-rule:evenodd;fill:#da0037;fill-opacity:1;" d="M 123.835938 187.878906 L 123.835938 183.664063 L 139.015625 183.664063 L 139.015625 196.960938 C 136.683594 198.816406 134.28125 200.222656 131.800781 201.15625 C 129.320313 202.09375 126.773438 202.558594 124.171875 202.558594 C 120.640625 202.558594 117.441406 201.808594 114.5625 200.292969 C 111.6875 198.792969 109.507813 196.605469 108.046875 193.757813 C 106.578125 190.902344 105.84375 187.710938 105.84375 184.195313 C 105.84375 180.703125 106.570313 177.445313 108.03125 174.414063 C 109.492188 171.390625 111.589844 169.144531 114.328125 167.683594 C 117.066406 166.214844 120.222656 165.480469 123.796875 165.480469 C 126.386719 165.480469 128.734375 165.898438 130.835938 166.738281 C 132.925781 167.582031 134.570313 168.753906 135.757813 170.246094 C 136.953125 171.746094 137.855469 173.714844 138.472656 176.128906 L 134.1875 177.292969 C 133.644531 175.476563 132.976563 174.039063 132.183594 172.988281 C 131.382813 171.941406 130.246094 171.109375 128.757813 170.480469 C 127.28125 169.855469 125.636719 169.539063 123.824219 169.539063 C 121.660156 169.539063 119.789063 169.871094 118.203125 170.53125 C 116.628906 171.191406 115.355469 172.058594 114.378906 173.144531 C 113.410156 174.222656 112.65625 175.410156 112.128906 176.695313 C 111.214844 178.921875 110.753906 181.332031 110.753906 183.921875 C 110.753906 187.132813 111.304688 189.816406 112.398438 191.980469 C 113.503906 194.132813 115.105469 195.738281 117.199219 196.78125 C 119.304688 197.824219 121.535156 198.351563 123.898438 198.351563 C 125.953125 198.351563 127.960938 197.949219 129.910156 197.15625 C 131.867188 196.355469 133.34375 195.511719 134.355469 194.601563 L 134.355469 187.878906 Z M 146.335938 184.496094 C 146.335938 178.546875 147.933594 173.890625 151.132813 170.523438 C 154.335938 167.15625 158.460938 165.480469 163.519531 165.480469 C 166.835938 165.480469 169.816406 166.273438 172.480469 167.851563 C 175.136719 169.429688 177.164063 171.632813 178.558594 174.464844 C 179.953125 177.289063 180.65625 180.496094 180.65625 184.078125 C 180.65625 187.710938 179.921875 190.96875 178.449219 193.832031 C 176.980469 196.707031 174.902344 198.875 172.214844 200.347656 C 169.515625 201.824219 166.609375 202.558594 163.492188 202.558594 C 160.109375 202.558594 157.097656 201.742188 154.433594 200.113281 C 151.777344 198.484375 149.753906 196.261719 148.386719 193.441406 C 147.015625 190.621094 146.335938 187.644531 146.335938 184.496094 Z M 151.242188 184.578125 C 151.242188 188.898438 152.402344 192.292969 154.722656 194.777344 C 157.046875 197.257813 159.964844 198.5 163.46875 198.5 C 167.046875 198.5 169.972656 197.25 172.289063 194.742188 C 174.59375 192.238281 175.746094 188.679688 175.746094 184.070313 C 175.746094 181.15625 175.253906 178.609375 174.265625 176.4375 C 173.28125 174.265625 171.839844 172.578125 169.941406 171.382813 C 168.035156 170.1875 165.90625 169.589844 163.546875 169.589844 C 160.1875 169.589844 157.296875 170.742188 154.878906 173.042969 C 152.453125 175.351563 151.242188 179.191406 151.242188 184.578125 Z M 188.324219 201.953125 L 188.324219 166.082031 L 193.085938 166.082031 L 193.085938 197.75 L 210.722656 197.75 L 210.722656 201.953125 Z M 218.152344 201.953125 L 218.152344 166.082031 L 230.515625 166.082031 C 233.304688 166.082031 235.433594 166.246094 236.902344 166.589844 C 238.960938 167.066406 240.714844 167.921875 242.164063 169.160156 C 244.058594 170.765625 245.472656 172.804688 246.40625 175.289063 C 247.351563 177.78125 247.820313 180.628906 247.820313 183.828125 C 247.820313 186.546875 247.503906 188.964844 246.867188 191.066406 C 246.230469 193.167969 245.414063 194.917969 244.421875 196.292969 C 243.421875 197.675781 242.335938 198.761719 241.144531 199.542969 C 239.96875 200.335938 238.539063 200.941406 236.871094 201.347656 C 235.191406 201.757813 233.269531 201.953125 231.097656 201.953125 Z M 222.914063 197.75 L 230.5625 197.75 C 232.929688 197.75 234.78125 197.53125 236.128906 197.085938 C 237.472656 196.648438 238.539063 196.027344 239.34375 195.226563 C 240.464844 194.101563 241.339844 192.578125 241.964844 190.671875 C 242.589844 188.769531 242.90625 186.464844 242.90625 183.753906 C 242.90625 179.992188 242.289063 177.105469 241.0625 175.082031 C 239.839844 173.0625 238.339844 171.710938 236.578125 171.023438 C 235.308594 170.53125 233.261719 170.289063 230.4375 170.289063 L 222.914063 170.289063 Z M 256.203125 201.953125 L 256.203125 166.082031 L 282.109375 166.082031 L 282.109375 170.289063 L 260.964844 170.289063 L 260.964844 181.3125 L 280.757813 181.3125 L 280.757813 185.523438 L 260.964844 185.523438 L 260.964844 197.75 L 282.964844 197.75 L 282.964844 201.953125 Z M 291.238281 201.953125 L 291.238281 166.082031 L 296.117188 166.082031 L 314.941406 194.242188 L 314.941406 166.082031 L 319.503906 166.082031 L 319.503906 201.953125 L 314.621094 201.953125 L 295.796875 173.792969 L 295.796875 201.953125 Z M 346.023438 187.878906 L 346.023438 183.664063 L 361.210938 183.664063 L 361.210938 196.960938 C 358.878906 198.816406 356.472656 200.222656 353.992188 201.15625 C 351.511719 202.09375 348.964844 202.558594 346.359375 202.558594 C 342.839844 202.558594 339.636719 201.808594 336.753906 200.292969 C 333.882813 198.792969 331.703125 196.605469 330.238281 193.757813 C 328.769531 190.902344 328.035156 187.710938 328.035156 184.195313 C 328.035156 180.703125 328.761719 177.445313 330.222656 174.414063 C 331.683594 171.390625 333.78125 169.144531 336.519531 167.683594 C 339.257813 166.214844 342.421875 165.480469 345.992188 165.480469 C 348.578125 165.480469 350.925781 165.898438 353.023438 166.738281 C 355.117188 167.582031 356.765625 168.753906 357.949219 170.246094 C 359.144531 171.746094 360.046875 173.714844 360.664063 176.128906 L 356.378906 177.292969 C 355.839844 175.476563 355.171875 174.039063 354.378906 172.988281 C 353.574219 171.941406 352.4375 171.109375 350.953125 170.480469 C 349.472656 169.855469 347.828125 169.539063 346.015625 169.539063 C 343.851563 169.539063 341.980469 169.871094 340.394531 170.53125 C 338.816406 171.191406 337.546875 172.058594 336.570313 173.144531 C 335.601563 174.222656 334.851563 175.410156 334.316406 176.695313 C 333.40625 178.921875 332.945313 181.332031 332.945313 183.921875 C 332.945313 187.132813 333.496094 189.816406 334.589844 191.980469 C 335.695313 194.132813 337.296875 195.738281 339.394531 196.78125 C 341.496094 197.824219 343.726563 198.351563 346.089844 198.351563 C 348.144531 198.351563 350.148438 197.949219 352.105469 197.15625 C 354.058594 196.355469 355.535156 195.511719 356.546875 194.601563 L 356.546875 187.878906 Z M 366.046875 201.953125 L 379.804688 166.082031 L 385.027344 166.082031 L 399.632813 201.953125 L 394.230469 201.953125 L 390.078125 191.085938 L 374.96875 191.085938 L 371.078125 201.953125 Z M 376.367188 187.226563 L 388.59375 187.226563 L 384.851563 177.28125 C 383.722656 174.257813 382.871094 171.757813 382.277344 169.789063 C 381.785156 172.128906 381.128906 174.417969 380.300781 176.695313 Z M 410.566406 201.953125 L 410.566406 170.289063 L 398.738281 170.289063 L 398.738281 166.082031 L 427.152344 166.082031 L 427.152344 170.289063 L 415.324219 170.289063 L 415.324219 201.953125 Z M 433.914063 201.953125 L 433.914063 166.082031 L 459.820313 166.082031 L 459.820313 170.289063 L 438.675781 170.289063 L 438.675781 181.3125 L 458.46875 181.3125 L 458.46875 185.523438 L 438.675781 185.523438 L 438.675781 197.75 L 460.675781 197.75 L 460.675781 201.953125 Z M 433.914063 201.953125 "/>
</g>
</g>
</svg>
